<svg id="ec5cbd0b-cf0c-4bd0-90c6-bb52760af8ae" data-name="Layer 1" xmlns="http://www.w3.org/2000/svg" viewBox="0 0 250 250"><path d="M55.4,120.74a35.52,35.52,0,0,0,3.53-4.17c.81-1.32,1.35-2.24,3.33-2.17,1.45,0,3.05-1.29,4.39-2.28,3.06-2.24,5.95-4.71,9-7,2.72-2,3-3.05,1.08-5.84-1.21-1.81-2.54-3.57-2.33-6s1.21-3.2,3.56-2.51c.79.23,1.48.78,2.26,1.06a12,12,0,0,0,3,.75,2.39,2.39,0,0,0,1.8-.7c.24-.31,0-1.25-.33-1.7a3.76,3.76,0,0,1-.08-4.34c.79-1.52,2.17-1.55,3.66-1.54,1.1,0,2.78,1.11,3.16-.57.22-1-.75-2.31-1.44-3.3-3.34-4.79-6.55-9.71-10.23-14.24-5.14-6.32-10.37-12.63-16.09-18.41A169,169,0,0,0,45.93,32.34c-3.39-2.58-7.78-3.84-11.69-5.74-2.82-1.38-6.08-1.91-8.43-4.23A7,7,0,0,1,25,21.05c.51-.13,1.08-.46,1.54-.35,3.17.8,6.35,1.61,9.49,2.56s6.15,1.92,9.11,3.15c3.12,1.31,6.12,2.91,9.16,4.42,1.77.89,3.53,1.82,5.27,2.77.72.4,1.66.74,2,1.38,1.62,2.9,4.43,4.41,6.89,6.35,4.94,3.9,10.21,7.49,14.65,11.91,3.82,3.81,6.69,8.58,10,12.95.54.71.91,1.56,1.48,2.24.28.33.87.4,1.31.58.11-.51.42-1.09.29-1.53a59.51,59.51,0,0,0-2.86-8.8A144.7,144.7,0,0,0,85.48,44.3c-2.18-3.46-5-6.49-7.56-9.74-.79-1-1.41-2.15-2.2-3.16-3.81-4.84-9.06-7.35-14.68-9.48-3.33-1.26-6.38-3.26-9.55-5a1.74,1.74,0,0,1-.8-.81,16.21,16.21,0,0,1-.5-2.11c.71-.06,1.59-.42,2.11-.14,5,2.74,10.61,3.5,15.9,5.24a23.08,23.08,0,0,1,10.91,7C83,30.74,87.32,35,91.31,39.53c7,8,13.65,16.27,18.48,25.83,1.54,3,3,6.14,4.79,9a40,40,0,0,0,5,6.3,4.46,4.46,0,0,0,3,.87A3.33,3.33,0,0,1,126.13,84c.8,2.37,1.23,4.89,2.25,7.15a32.3,32.3,0,0,0,4.05,6.71c3.86,4.87,8,9.52,11.93,14.36,4.33,5.34,8.51,10.79,12.78,16.19,1.94,2.46,3.83,5,5.94,7.3,1.45,1.61,3.3,2.85,4.87,4.37a13.27,13.27,0,0,1,2.12,15.29,3.17,3.17,0,0,0-.36,2.16,2.19,2.19,0,0,1-1.7,3,7.4,7.4,0,0,0-4.76,4.19c-.76,1.48-1.92,1.91-3.58,2.07a81,81,0,0,0-8.29,1.52,3.41,3.41,0,0,0-2.72,3.15c-.39,2.54-.84,5.08-1,7.64-.37,5-.6,10-2.08,14.84-.56,1.84-1.36,3.6-2,5.42s-1.2,3.65-1.91,5.43c-.19.49-.81.81-1.24,1.21a8.56,8.56,0,0,1-.55-1.51c-.85-4.44.28-8.56,1.66-12.77.9-2.76.83-5.83,1.1-8.78,0-.45-.43-1-.66-1.44-.4.42-1.08.79-1.17,1.27-.35,1.89-.47,3.82-.79,5.72-.24,1.44-.65,2.86-1,4.28l-.84-.14c.12-1.35.22-2.69.37-4,.05-.44.33-.89.29-1.31a16,16,0,0,0-.5-2.13l-1.73.85-.71.34c-.07-.57-.32-1.11-.16-1.5,1.37-3.56-.53-6.67-1.26-9.94-.94-4.22-4.09-7.07-6.5-10.36-.93-1.26-2.31-2.18-3.37-3.36a12.48,12.48,0,0,1-1.82-2.67,4,4,0,0,0-3.72-2.56,21.46,21.46,0,0,1-9.26-2.35c-2.27-1.16-6.85-.09-8.29,2.06s-2.45,4.35-3.65,6.54c-.18.34-.19.81-.45,1a12.05,12.05,0,0,1-1.6,1.12c-.31-.51-.64-1-.94-1.52s-.61-1.11-.91-1.66c-.5.45-1.32.84-1.43,1.38a5.42,5.42,0,0,1-1.08,2.29l58.31,71.37c.16-3.8,1.5-7.37,3.71-9.2l1.33,5.31.36-.15c.32-1.41.65-2.82,1-4.43.59,1.5,1,2.65,1.48,3.8l.5-.07c-.84-2.88.43-5.24,1.73-7.54.3-.52,1.22-1.18,1.65-1.05a6.63,6.63,0,0,0,6.64-1.84c3.35-3.08,6.48-6.38,9.65-9.64a3,3,0,0,0,1-1.92c-.19-1.95,1.26-3.09,1.91-4.61.73-1.72,1.18-3.56,1.75-5.35l-.88-.43a65.25,65.25,0,0,0-4.19,5.23c-1.32,2-1.46,2.19-3.59,1.09q1.94-5.29,3.86-10.55l-.66-.35c-.62.66-1.25,1.3-1.86,2-1.41,1.55-2.8,3.12-4.21,4.66a2.15,2.15,0,0,1-3.21.29c-3.62-2.45-6.84-5.1-8.55-9.38-1.36-3.4-1-7,1.87-9.24a63.22,63.22,0,0,1,8-5.24,7.76,7.76,0,0,1,4.58-1.06c3.86.6,7.67,1.61,11.47,2.57a2.24,2.24,0,0,1,1.79,2.79,42.31,42.31,0,0,1-1.34,5.52c-.73,2.09-1.77,4.07-2.88,6.57a28.49,28.49,0,0,0,10.52-9.52c.49,3.72-2.39,5.84-3.63,8.75.68,0,1.32,0,1.61-.31,2.94-3.36,6.73-6.05,8.42-10.41a2,2,0,0,1,2-1.47,15.63,15.63,0,0,0,14.17-12.51,7.07,7.07,0,0,1,1.76-3.11c1.73-1.83,3.76-3.39,5.48-5.22,2.4-2.55,2.51-4.15.75-7.14a20.52,20.52,0,0,0-11.24-9.13c-1-.36-2-.82-3.38-1.4,2.34-1,1.65-2,.72-3.14-.51-.61-1-1.21-1.58-1.81-1.23-1.35-3.07-2.17-3.19-4.47,0-.67-1.25-1.47-2.09-1.88a20.43,20.43,0,0,0-3.44-1c.3-1.54-.85-2.09-2.07-2.41-1.06-.27-2.2-.25-3.29-.42s-2.07-.42-3.11-.64c.48-.89.92-1.81,1.46-2.66a51,51,0,0,0,2.88-4.49c.95-2,.42-3.14-1.38-4.37a41.44,41.44,0,0,1-5.08-3.69c-4.88-4.59-9.69-9.28-14.43-14a5.65,5.65,0,0,1-1.5-5.45c.68-3.19,1.35-6.39,1.81-9.62A22.93,22.93,0,0,0,169,62.8c1.7,7.06,1.34,9.88-1.46,11.83-.18-1.89-.35-3.77-.53-5.66-.77-7.84-5.15-13-12.16-16.07a7.3,7.3,0,0,0-3.39-.44c-2.57.18-5.13.72-7.7.84a8.47,8.47,0,0,1-9-8.73c0-1.54.21-3.07.32-4.6l-.69-.18-2.64,6.35L120,40.44l-.22.46c5,3.74,6.31,5.69,6.25,9.76-.83-.79-1.55-1.43-2.22-2.12-5.63-5.78-12.92-7.64-20.47-7.23a45.9,45.9,0,0,0-25.13,8.86A200.18,200.18,0,0,0,60.2,66c-8,7.68-15.53,16-27.1,18.57l0,.64,7.66.82c-2.19,3.74-6,4.23-9.73,4.91Z" transform="translate(-25 -13.79)" style="fill:#000"/></svg>
